<mxfile host="app.diagrams.net" agent="Mozilla/5.0 (X11; Ubuntu; Linux x86_64; rv:129.0) Gecko/20100101 Firefox/129.0" version="24.7.10">
  <diagram name="Page-1" id="AiPFIDr3WITf6CaPFkdJ">
    <mxGraphModel dx="1424" dy="304" grid="1" gridSize="10" guides="1" tooltips="1" connect="1" arrows="1" fold="1" page="1" pageScale="1" pageWidth="850" pageHeight="1100" math="0" shadow="0">
      <root>
        <mxCell id="0" />
        <mxCell id="1" parent="0" />
        <mxCell id="b_7a73mQSJcpQ-aevn8s-1" value="Unit Testable" style="whiteSpace=wrap;html=1;fillColor=#f5f5f5;fontColor=#333333;strokeColor=#666666;verticalAlign=bottom;align=left;" parent="1" vertex="1">
          <mxGeometry x="-720" y="120" width="400" height="260" as="geometry" />
        </mxCell>
        <mxCell id="b_7a73mQSJcpQ-aevn8s-2" value="HTTP" style="rounded=1;whiteSpace=wrap;html=1;fillColor=#ffe6cc;strokeColor=#d79b00;" parent="1" vertex="1">
          <mxGeometry x="-680" y="80" width="120" height="40" as="geometry" />
        </mxCell>
        <mxCell id="b_7a73mQSJcpQ-aevn8s-10" style="edgeStyle=orthogonalEdgeStyle;rounded=0;orthogonalLoop=1;jettySize=auto;html=1;entryX=0.75;entryY=0;entryDx=0;entryDy=0;curved=1;startArrow=classic;startFill=1;" parent="1" source="b_7a73mQSJcpQ-aevn8s-3" target="b_7a73mQSJcpQ-aevn8s-8" edge="1">
          <mxGeometry relative="1" as="geometry" />
        </mxCell>
        <mxCell id="b_7a73mQSJcpQ-aevn8s-3" value="SQL" style="rounded=1;whiteSpace=wrap;html=1;fillColor=#ffe6cc;strokeColor=#d79b00;" parent="1" vertex="1">
          <mxGeometry x="-520" y="80" width="120" height="40" as="geometry" />
        </mxCell>
        <mxCell id="b_7a73mQSJcpQ-aevn8s-4" value="Data sources" style="text;html=1;align=center;verticalAlign=middle;whiteSpace=wrap;rounded=0;" parent="1" vertex="1">
          <mxGeometry x="-840" y="85" width="120" height="30" as="geometry" />
        </mxCell>
        <mxCell id="b_7a73mQSJcpQ-aevn8s-5" value="View" style="text;html=1;align=center;verticalAlign=middle;whiteSpace=wrap;rounded=0;" parent="1" vertex="1">
          <mxGeometry x="-840" y="380" width="120" height="30" as="geometry" />
        </mxCell>
        <mxCell id="b_7a73mQSJcpQ-aevn8s-12" style="edgeStyle=orthogonalEdgeStyle;rounded=0;orthogonalLoop=1;jettySize=auto;html=1;entryX=0.5;entryY=0;entryDx=0;entryDy=0;" parent="1" edge="1">
          <mxGeometry relative="1" as="geometry">
            <mxPoint x="-548" y="230" as="sourcePoint" />
            <mxPoint x="-548" y="260" as="targetPoint" />
          </mxGeometry>
        </mxCell>
        <mxCell id="b_7a73mQSJcpQ-aevn8s-8" value="Repository" style="rounded=1;whiteSpace=wrap;html=1;fillColor=#dae8fc;strokeColor=#6c8ebf;" parent="1" vertex="1">
          <mxGeometry x="-600" y="160" width="120" height="70" as="geometry" />
        </mxCell>
        <mxCell id="b_7a73mQSJcpQ-aevn8s-9" style="edgeStyle=orthogonalEdgeStyle;rounded=0;orthogonalLoop=1;jettySize=auto;html=1;curved=1;entryX=0.25;entryY=0;entryDx=0;entryDy=0;startArrow=classic;startFill=1;" parent="1" source="b_7a73mQSJcpQ-aevn8s-2" target="b_7a73mQSJcpQ-aevn8s-8" edge="1">
          <mxGeometry relative="1" as="geometry" />
        </mxCell>
        <mxCell id="b_7a73mQSJcpQ-aevn8s-11" value="View Model" style="rounded=1;whiteSpace=wrap;html=1;fillColor=#d5e8d4;strokeColor=#82b366;" parent="1" vertex="1">
          <mxGeometry x="-600" y="260" width="120" height="90" as="geometry" />
        </mxCell>
        <mxCell id="b_7a73mQSJcpQ-aevn8s-13" style="edgeStyle=orthogonalEdgeStyle;rounded=0;orthogonalLoop=1;jettySize=auto;html=1;entryX=0.5;entryY=0;entryDx=0;entryDy=0;" parent="1" edge="1">
          <mxGeometry relative="1" as="geometry">
            <mxPoint x="-533" y="260" as="sourcePoint" />
            <mxPoint x="-533" y="230" as="targetPoint" />
          </mxGeometry>
        </mxCell>
        <mxCell id="b_7a73mQSJcpQ-aevn8s-15" style="edgeStyle=orthogonalEdgeStyle;rounded=0;orthogonalLoop=1;jettySize=auto;html=1;entryX=1;entryY=0.5;entryDx=0;entryDy=0;" parent="1" source="b_7a73mQSJcpQ-aevn8s-14" target="b_7a73mQSJcpQ-aevn8s-11" edge="1">
          <mxGeometry relative="1" as="geometry" />
        </mxCell>
        <mxCell id="b_7a73mQSJcpQ-aevn8s-16" value="" style="edgeStyle=orthogonalEdgeStyle;rounded=0;orthogonalLoop=1;jettySize=auto;html=1;startArrow=classic;startFill=1;" parent="1" source="b_7a73mQSJcpQ-aevn8s-14" target="b_7a73mQSJcpQ-aevn8s-11" edge="1">
          <mxGeometry relative="1" as="geometry" />
        </mxCell>
        <mxCell id="b_7a73mQSJcpQ-aevn8s-14" value="&lt;div&gt;Data&amp;nbsp;&lt;/div&gt;&lt;div&gt;Mapper&lt;/div&gt;" style="rounded=1;whiteSpace=wrap;html=1;fillColor=#d5e8d4;strokeColor=#82b366;" parent="1" vertex="1">
          <mxGeometry x="-450" y="285" width="90" height="40" as="geometry" />
        </mxCell>
        <mxCell id="b_7a73mQSJcpQ-aevn8s-18" value="UI" style="rounded=1;whiteSpace=wrap;html=1;fillColor=#f8cecc;strokeColor=#b85450;" parent="1" vertex="1">
          <mxGeometry x="-600" y="380" width="120" height="40" as="geometry" />
        </mxCell>
        <mxCell id="b_7a73mQSJcpQ-aevn8s-21" style="edgeStyle=orthogonalEdgeStyle;rounded=0;orthogonalLoop=1;jettySize=auto;html=1;entryX=0.5;entryY=0;entryDx=0;entryDy=0;" parent="1" edge="1">
          <mxGeometry relative="1" as="geometry">
            <mxPoint x="-548" y="350" as="sourcePoint" />
            <mxPoint x="-548" y="380" as="targetPoint" />
          </mxGeometry>
        </mxCell>
        <mxCell id="b_7a73mQSJcpQ-aevn8s-22" style="edgeStyle=orthogonalEdgeStyle;rounded=0;orthogonalLoop=1;jettySize=auto;html=1;entryX=0.5;entryY=0;entryDx=0;entryDy=0;" parent="1" edge="1">
          <mxGeometry relative="1" as="geometry">
            <mxPoint x="-533" y="380" as="sourcePoint" />
            <mxPoint x="-533" y="350" as="targetPoint" />
          </mxGeometry>
        </mxCell>
        <mxCell id="cInYuRcPz-8upiIfSP2r-1" style="edgeStyle=orthogonalEdgeStyle;rounded=0;orthogonalLoop=1;jettySize=auto;html=1;entryX=1;entryY=0.5;entryDx=0;entryDy=0;" edge="1" parent="1" source="cInYuRcPz-8upiIfSP2r-3">
          <mxGeometry relative="1" as="geometry">
            <mxPoint x="-480" y="195" as="targetPoint" />
          </mxGeometry>
        </mxCell>
        <mxCell id="cInYuRcPz-8upiIfSP2r-2" value="" style="edgeStyle=orthogonalEdgeStyle;rounded=0;orthogonalLoop=1;jettySize=auto;html=1;startArrow=classic;startFill=1;entryX=1;entryY=0.5;entryDx=0;entryDy=0;" edge="1" parent="1" source="cInYuRcPz-8upiIfSP2r-3" target="b_7a73mQSJcpQ-aevn8s-8">
          <mxGeometry relative="1" as="geometry">
            <mxPoint x="-480" y="195" as="targetPoint" />
          </mxGeometry>
        </mxCell>
        <mxCell id="cInYuRcPz-8upiIfSP2r-3" value="&lt;div&gt;Data&amp;nbsp;&lt;/div&gt;&lt;div&gt;Mapper&lt;/div&gt;" style="rounded=1;whiteSpace=wrap;html=1;fillColor=#dae8fc;strokeColor=#6c8ebf;" vertex="1" parent="1">
          <mxGeometry x="-450" y="175" width="90" height="40" as="geometry" />
        </mxCell>
      </root>
    </mxGraphModel>
  </diagram>
</mxfile>
